<?xml version="1.0" standalone="no"?>
<!DOCTYPE svg PUBLIC "-//W3C//DTD SVG 20010904//EN"
 "http://www.w3.org/TR/2001/REC-SVG-20010904/DTD/svg10.dtd">
<svg version="1.0" xmlns="http://www.w3.org/2000/svg"
 width="556.000000pt" height="556.000000pt" viewBox="0 0 556.000000 556.000000"
 preserveAspectRatio="xMidYMid meet">

<g transform="translate(0.000000,556.000000) scale(0.100000,-0.100000)"
fill="#000000" stroke="none">
<path d="M2500 5539 c-644 -70 -1236 -353 -1686 -806 -558 -561 -847 -1321
-803 -2112 37 -667 309 -1289 773 -1769 442 -457 1006 -741 1646 -828 172 -24
528 -24 700 0 535 73 1036 293 1435 629 783 660 1140 1696 929 2699 -164 783
-670 1465 -1378 1857 -279 155 -603 263 -946 316 -124 20 -541 28 -670 14z
m510 -139 c1051 -94 1940 -798 2270 -1800 96 -289 125 -482 125 -825 0 -297
-12 -402 -75 -651 -50 -195 -93 -312 -190 -510 -257 -524 -668 -934 -1199
-1197 -370 -184 -738 -269 -1161 -269 -423 0 -791 85 -1161 269 -531 263 -942
673 -1199 1197 -97 198 -140 315 -190 510 -63 249 -75 354 -75 651 0 343 29
536 125 825 220 668 692 1215 1320 1530 435 219 927 313 1410 270z"/>
<path d="M1050 2775 l0 -1615 355 0 355 0 0 640 0 640 243 0 244 0 181 314
c100 172 182 316 182 320 0 3 -191 6 -425 6 l-425 0 0 280 0 280 540 0 540 0
0 375 0 375 -895 0 -895 0 0 -1615z m1650 1240 l0 -235 -545 0 -545 0 0 -420
0 -420 380 -2 379 -3 -102 -177 -102 -178 -277 0 -278 0 0 -640 0 -640 -205 0
-205 0 0 1475 0 1475 750 0 750 0 0 -235z"/>
<path d="M3222 4037 c3 -318 5 -358 20 -373 12 -12 43 -19 105 -24 118 -11
172 -25 278 -75 178 -83 317 -224 406 -410 59 -124 78 -201 86 -335 21 -385
-202 -740 -538 -857 -40 -13 -104 -27 -143 -30 -39 -3 -341 -5 -671 -6 l-600
-2 0 -380 0 -380 660 0 c650 0 662 1 765 23 343 75 586 206 826 446 235 235
374 493 445 826 31 143 34 453 5 605 -108 579 -508 1049 -1055 1239 -152 53
-275 76 -444 83 l-148 6 3 -356z m346 187 c403 -72 777 -344 990 -717 136
-238 202 -516 189 -797 -16 -366 -158 -696 -413 -960 -249 -258 -549 -404
-903 -440 -57 -5 -330 -10 -612 -10 l-509 0 0 240 0 240 534 0 c325 0 565 4
611 11 373 52 663 319 770 710 35 127 44 315 21 447 -73 419 -400 756 -799
823 l-77 13 0 234 0 234 58 -6 c31 -4 94 -14 140 -22z"/>
</g>
</svg>
