<?xml version="1.0" standalone="no"?>
<!DOCTYPE svg PUBLIC "-//W3C//DTD SVG 20010904//EN"
 "http://www.w3.org/TR/2001/REC-SVG-20010904/DTD/svg10.dtd">
<svg version="1.0" xmlns="http://www.w3.org/2000/svg"
 width="452.000000pt" height="452.000000pt" viewBox="0 0 452.000000 452.000000"
 preserveAspectRatio="xMidYMid meet">

<g transform="translate(0.000000,452.000000) scale(0.100000,-0.100000)"
fill="#000000" stroke="none">
<path d="M2094 4509 c-892 -64 -1674 -663 -1964 -1505 -88 -256 -123 -466
-124 -739 0 -194 11 -310 45 -470 180 -842 816 -1507 1644 -1720 210 -54 332
-69 565 -69 219 0 343 14 527 59 818 199 1453 827 1659 1641 50 201 67 340 67
559 -1 212 -15 336 -64 535 -175 710 -687 1292 -1377 1564 -201 79 -429 129
-667 146 -153 11 -150 11 -311 -1z m406 -159 c140 -17 288 -50 419 -92 145
-48 379 -162 506 -247 511 -341 849 -890 925 -1501 13 -109 13 -391 0 -500
-38 -306 -146 -613 -305 -865 -210 -333 -510 -605 -860 -776 -299 -146 -580
-211 -920 -212 -351 0 -618 61 -930 213 -231 113 -401 236 -585 426 -389 401
-591 898 -592 1454 0 195 11 300 48 470 88 393 274 730 564 1021 331 334 744
541 1206 603 120 17 409 20 524 6z"/>
<path d="M1250 2255 l0 -1055 215 0 215 0 0 425 0 425 145 0 c155 0 196 9 243
53 57 53 79 149 53 229 -15 46 -87 113 -137 127 -22 6 -99 11 -171 11 l-133 0
0 210 0 210 318 2 317 3 3 208 2 207 -535 0 -535 0 0 -1055z m910 845 l0 -60
-315 0 -315 0 0 -360 0 -360 203 0 c225 0 247 -5 247 -60 0 -57 -11 -60 -241
-60 l-209 0 0 -425 0 -425 -65 0 -65 0 0 905 0 905 380 0 380 0 0 -60z"/>
<path d="M2440 3107 c0 -204 0 -205 23 -211 12 -3 38 -6 57 -6 60 0 162 -29
240 -68 95 -46 221 -168 268 -259 68 -129 91 -317 57 -462 -20 -82 -82 -202
-140 -268 -62 -71 -173 -143 -275 -178 l-85 -30 -387 -3 -388 -3 0 -210 0
-211 428 4 c423 4 428 4 524 30 295 80 525 263 662 528 254 488 104 1084 -346
1383 -165 110 -310 157 -505 164 l-133 6 0 -206z m243 39 c99 -19 211 -65 300
-122 451 -292 550 -919 212 -1341 -114 -143 -290 -256 -470 -305 -72 -19 -113
-21 -422 -26 l-343 -4 0 61 0 61 290 0 c318 0 382 7 516 59 167 65 321 206
399 365 64 129 87 225 87 366 0 84 -6 136 -21 194 -73 278 -287 494 -561 564
l-75 19 -3 62 c-2 34 1 61 7 61 5 0 43 -6 84 -14z"/>
</g>
</svg>
