<?xml version="1.0" standalone="no"?>
<!DOCTYPE svg PUBLIC "-//W3C//DTD SVG 20010904//EN"
 "http://www.w3.org/TR/2001/REC-SVG-20010904/DTD/svg10.dtd">
<svg version="1.0" xmlns="http://www.w3.org/2000/svg"
 width="555.000000pt" height="556.000000pt" viewBox="0 0 555.000000 556.000000"
 preserveAspectRatio="xMidYMid meet">

<g transform="translate(0.000000,556.000000) scale(0.100000,-0.100000)"
fill="#000000" stroke="none">
<path d="M2555 5544 c-16 -2 -73 -9 -125 -15 -294 -33 -613 -130 -889 -268
-288 -144 -494 -293 -727 -525 -156 -157 -229 -246 -350 -427 -286 -429 -443
-917 -461 -1439 -33 -967 436 -1874 1250 -2411 341 -226 706 -364 1137 -430
208 -32 562 -32 770 0 431 66 796 204 1137 430 444 293 797 706 1009 1181 390
872 307 1880 -220 2669 -121 181 -194 270 -350 427 -233 232 -439 381 -727
525 -265 133 -537 217 -853 265 -96 15 -532 28 -601 18z m583 -158 c678 -101
1275 -441 1693 -966 310 -388 496 -832 560 -1335 21 -163 16 -513 -9 -680 -90
-587 -344 -1091 -757 -1500 -418 -415 -957 -673 -1560 -746 -129 -15 -451 -15
-580 0 -744 90 -1384 459 -1828 1054 -253 339 -421 748 -489 1192 -25 167 -30
517 -9 680 52 411 189 788 405 1120 442 681 1150 1111 1966 1195 120 12 486 4
608 -14z"/>
<path d="M2570 4669 c-41 -5 -111 -15 -155 -24 -82 -15 -435 -125 -435 -134 0
-4 60 -26 133 -51 163 -55 372 -159 497 -248 122 -86 326 -290 412 -412 230
-325 341 -699 325 -1100 -26 -644 -395 -1213 -976 -1505 -58 -29 -173 -76
-255 -106 l-149 -53 129 -43 c259 -88 458 -123 687 -123 671 1 1291 357 1633
937 306 517 347 1161 110 1715 -272 635 -857 1068 -1551 1148 -104 11 -297 11
-405 -1z m512 -158 c974 -168 1620 -1125 1418 -2100 -72 -351 -264 -688 -532
-935 -242 -223 -565 -383 -893 -442 -168 -30 -533 -23 -649 12 -14 5 1 17 61
49 175 93 326 208 473 361 274 284 438 614 512 1024 8 49 13 155 13 305 -1
211 -3 241 -28 358 -122 576 -465 1038 -976 1315 -55 30 -69 41 -55 45 17 5
114 19 214 31 77 9 331 -4 442 -23z"/>
</g>
</svg>
