<?xml version="1.0" standalone="no"?>
<!DOCTYPE svg PUBLIC "-//W3C//DTD SVG 20010904//EN"
 "http://www.w3.org/TR/2001/REC-SVG-20010904/DTD/svg10.dtd">
<svg version="1.0" xmlns="http://www.w3.org/2000/svg"
 width="555.000000pt" height="556.000000pt" viewBox="0 0 555.000000 556.000000"
 preserveAspectRatio="xMidYMid meet">

<g transform="translate(0.000000,556.000000) scale(0.100000,-0.100000)"
fill="#000000" stroke="none">
<path d="M2555 5544 c-16 -2 -73 -9 -125 -15 -294 -33 -613 -130 -889 -268
-288 -144 -494 -293 -727 -525 -156 -157 -229 -246 -350 -427 -286 -429 -443
-917 -461 -1439 -33 -967 436 -1874 1250 -2411 341 -226 706 -364 1137 -430
208 -32 562 -32 770 0 431 66 796 204 1137 430 444 293 797 706 1009 1181 390
872 307 1880 -220 2669 -121 181 -194 270 -350 427 -233 232 -439 381 -727
525 -265 133 -537 217 -853 265 -96 15 -532 28 -601 18z m583 -158 c678 -101
1275 -441 1693 -966 310 -388 496 -832 560 -1335 21 -163 16 -513 -9 -680 -90
-587 -344 -1091 -757 -1500 -418 -415 -957 -673 -1560 -746 -129 -15 -451 -15
-580 0 -744 90 -1384 459 -1828 1054 -253 339 -421 748 -489 1192 -25 167 -30
517 -9 680 52 411 189 788 405 1120 442 681 1150 1111 1966 1195 120 12 486 4
608 -14z"/>
<path d="M2610 5043 c-88 -179 -158 -328 -156 -330 2 -2 43 1 92 7 117 13 346
13 457 -1 49 -6 91 -8 95 -5 6 7 -314 656 -323 656 -3 0 -77 -147 -165 -327z
m249 -160 c1 -10 -22 -13 -84 -13 -49 0 -85 4 -85 10 0 5 19 48 42 95 l43 85
42 -82 c23 -46 42 -89 42 -95z"/>
<path d="M1311 4518 c32 -188 60 -345 61 -349 2 -5 39 24 83 63 107 95 202
165 325 239 56 34 100 62 98 64 -7 6 -617 325 -621 325 -2 0 22 -154 54 -342z
m197 52 c92 -47 90 -42 24 -93 l-61 -46 -5 27 c-3 15 -8 45 -12 67 -3 22 -8
48 -11 58 -6 23 -2 22 65 -13z"/>
<path d="M3985 4700 c-165 -87 -301 -163 -302 -167 -1 -4 38 -32 88 -61 105
-63 233 -157 335 -249 l72 -64 6 28 c3 15 28 163 56 328 28 165 53 310 55 323
3 12 2 22 -2 21 -5 0 -143 -72 -308 -159z m121 -132 c-4 -18 -9 -52 -13 -76
-3 -23 -10 -45 -14 -48 -5 -3 -34 14 -64 37 l-56 42 68 38 c37 21 72 38 77 39
5 0 6 -15 2 -32z"/>
<path d="M2570 4669 c-558 -63 -1063 -369 -1375 -834 -454 -677 -428 -1567 64
-2213 497 -653 1346 -913 2131 -652 472 157 879 517 1100 975 395 816 160
1796 -562 2346 -383 292 -884 431 -1358 378z m512 -158 c675 -116 1237 -636
1401 -1296 44 -175 52 -242 52 -440 0 -307 -48 -513 -180 -780 -96 -194 -180
-310 -335 -465 -155 -155 -271 -239 -465 -335 -267 -132 -473 -180 -780 -180
-244 0 -424 32 -628 111 -886 342 -1343 1312 -1042 2212 218 650 796 1113
1490 1192 117 13 352 4 487 -19z"/>
<path d="M653 3640 c-178 -27 -326 -50 -331 -52 -5 -1 108 -118 251 -258 l260
-255 28 121 c33 146 66 244 129 387 l48 107 -32 -1 c-17 -1 -176 -23 -353 -49z
m130 -197 c-14 -43 -28 -80 -30 -82 -2 -3 -33 24 -68 59 -35 35 -63 66 -61 68
3 2 42 10 88 17 46 7 86 13 90 14 4 0 -5 -34 -19 -76z"/>
<path d="M4520 3680 c0 -6 11 -32 24 -58 49 -98 100 -242 135 -382 20 -80 39
-148 42 -150 3 -3 122 109 264 248 142 138 255 252 252 252 -4 0 -161 23 -349
50 -378 55 -368 54 -368 40z m379 -186 l34 -5 -64 -65 c-35 -35 -66 -64 -69
-64 -6 0 -50 129 -50 147 0 9 38 6 149 -13z"/>
<path d="M570 2221 c-140 -137 -253 -251 -250 -254 3 -2 151 -25 330 -51 179
-26 339 -49 357 -52 l32 -6 -53 123 c-59 136 -106 280 -132 407 -10 45 -20 82
-23 82 -3 -1 -121 -113 -261 -249z m233 -179 c-3 -6 -183 20 -183 27 0 3 30
34 67 67 l67 61 26 -76 c14 -42 25 -78 23 -79z"/>
<path d="M4696 2383 c-25 -122 -80 -288 -137 -417 l-48 -108 27 5 c15 2 177
26 360 53 182 26 332 51 332 55 0 8 -496 492 -509 497 -4 1 -15 -37 -25 -85z
m175 -250 c32 -31 59 -59 59 -63 0 -8 -170 -33 -177 -26 -7 7 40 146 50 146 5
0 35 -25 68 -57z"/>
<path d="M1360 1323 c-6 -38 -32 -192 -58 -343 -26 -151 -44 -276 -40 -278 7
-3 346 171 546 280 l73 40 -102 62 c-123 76 -241 163 -331 245 -36 33 -68 61
-71 61 -3 0 -10 -30 -17 -67z m230 -293 c0 -3 -34 -23 -76 -43 l-76 -38 6 28
c3 15 8 46 12 68 12 80 9 79 75 33 32 -23 59 -45 59 -48z"/>
<path d="M4099 1325 c-99 -90 -214 -175 -326 -242 -51 -31 -93 -58 -93 -62 0
-6 613 -331 617 -327 4 3 -115 688 -120 693 -3 2 -38 -26 -78 -62z m-5 -266
c4 -29 10 -65 13 -81 l6 -30 -54 28 c-109 55 -108 51 -42 99 32 23 61 41 64
39 4 -2 9 -27 13 -55z"/>
<path d="M2451 834 c0 -5 74 -155 164 -334 l163 -325 161 329 c89 181 159 331
157 333 -2 3 -64 -1 -138 -8 -126 -11 -310 -8 -450 7 -32 4 -58 3 -57 -2z
m373 -246 l-46 -93 -44 85 c-24 47 -43 88 -43 93 -1 4 40 7 89 7 l90 0 -46
-92z"/>
</g>
</svg>
